<svg width="25" height="25" viewBox="0 0 25 25" fill="none" xmlns="http://www.w3.org/2000/svg">
<g clip-path="url(#clip0_1367_25)">
<path d="M12.5811 0.254669C5.96425 0.254669 0.581055 5.63787 0.581055 12.2547C0.581055 18.8715 5.96425 24.2547 12.5811 24.2547C19.1979 24.2547 24.5811 18.8715 24.5811 12.2547C24.5811 5.63787 19.1979 0.254669 12.5811 0.254669ZM12.5811 22.0729C7.16724 22.0729 2.76287 17.6684 2.76287 12.2547C2.76287 6.84092 7.16724 2.43649 12.5811 2.43649C17.9949 2.43649 22.3992 6.84092 22.3992 12.2547C22.3992 17.6684 17.9948 22.0729 12.5811 22.0729Z" fill="#5EBD56"/>
<path d="M17.0806 8.01206L10.9094 14.1832L8.08104 11.3547C7.65508 10.9288 6.96431 10.9287 6.53828 11.3547C6.11224 11.7807 6.11224 12.4714 6.53828 12.8974L10.138 16.4973C10.3426 16.7019 10.62 16.8169 10.9093 16.8169C10.9094 16.8169 10.9093 16.8169 10.9094 16.8169C11.1987 16.8169 11.4762 16.7019 11.6807 16.4974L18.6234 9.55489C19.0494 9.12886 19.0494 8.43817 18.6234 8.01213C18.1973 7.58609 17.5066 7.58602 17.0806 8.01206Z" fill="#5EBD56"/>
</g>
<defs>
<clipPath id="clip0_1367_25">
<rect width="24" height="24" fill="white" transform="translate(0.581055 0.254669)"/>
</clipPath>
</defs>
</svg>
