<svg width="60" height="60" viewBox="0 0 60 60" fill="none" xmlns="http://www.w3.org/2000/svg">
<path d="M30.1432 59.4895C13.9357 59.4745 0.743154 46.2595 0.765654 30.0595C0.795654 13.837 13.9957 0.667043 30.2107 0.689543C46.4257 0.712043 59.6032 13.9345 59.5657 30.142C59.5282 46.342 46.3357 59.5045 30.1432 59.4895ZM52.6657 43.2595C58.5682 33.4795 57.5407 19.2445 47.1457 10.282C36.9457 1.49204 21.6382 1.96454 12.0382 11.332C2.24315 20.8945 1.32815 36.082 9.99065 46.612C18.6682 57.1645 32.1232 58.0195 40.7257 53.902C39.0832 52.0945 37.4482 50.2945 35.7982 48.502C35.7232 48.4195 35.5057 48.3895 35.3857 48.427C32.1307 49.417 28.8157 49.627 25.5007 48.8845C19.2157 47.482 14.6332 43.8595 11.7982 38.077C10.1707 34.7545 9.63065 31.2145 10.0207 27.5395C10.1332 26.482 10.3807 25.447 10.5607 24.397C10.6057 24.3895 10.6507 24.382 10.6957 24.382C10.7707 24.4795 10.8457 24.577 10.9282 24.667C14.3707 28.462 17.8207 32.2495 21.2632 36.0445C23.4232 38.4295 26.5732 38.587 28.9507 36.427C31.4107 34.192 33.8707 31.957 36.3307 29.722C38.6782 27.5845 38.8282 24.4345 36.6982 22.087C33.2932 18.3295 29.8732 14.5795 26.4607 10.822C26.3332 10.687 26.2132 10.5445 26.0482 10.3645C26.3107 10.312 26.5132 10.2595 26.7232 10.2295C30.0232 9.79454 33.2407 10.1245 36.3832 11.257C43.4857 13.822 48.6907 20.767 49.1257 28.2895C49.3057 31.3795 48.8557 34.3645 47.6407 37.2295C47.5357 37.477 47.5732 37.627 47.7457 37.822C49.3057 39.5245 50.8582 41.242 52.4182 42.952C52.5082 43.042 52.5757 43.147 52.6657 43.2595Z" fill="white"/>
</svg>
