<svg width="50" height="50" viewBox="0 0 50 50" fill="none" xmlns="http://www.w3.org/2000/svg">
<path d="M25.0623 49.1708C11.5561 49.1583 0.562329 38.1458 0.581079 24.6458C0.606079 11.127 11.6061 0.15205 25.1186 0.1708C38.6311 0.18955 49.6123 11.2083 49.5811 24.7146C49.5498 38.2146 38.5561 49.1833 25.0623 49.1708ZM43.8311 35.6458C48.7498 27.4958 47.8936 15.6333 39.2311 8.16455C30.7311 0.83955 17.9748 1.2333 9.97483 9.03955C1.81233 17.0083 1.04983 29.6645 8.26858 38.4395C15.4998 47.2333 26.7123 47.9458 33.8811 44.5145C32.5123 43.0083 31.1498 41.5083 29.7748 40.0145C29.7123 39.9458 29.5311 39.9208 29.4311 39.952C26.7186 40.7771 23.9561 40.9521 21.1936 40.3333C15.9561 39.1646 12.1373 36.1458 9.77483 31.327C8.41858 28.5583 7.96858 25.6083 8.29358 22.5458C8.38733 21.6645 8.59358 20.802 8.74358 19.927C8.78108 19.9208 8.81858 19.9146 8.85608 19.9146C8.91858 19.9958 8.98108 20.077 9.04983 20.1521C11.9186 23.3146 14.7936 26.4708 17.6623 29.6333C19.4623 31.6208 22.0873 31.752 24.0686 29.952C26.1186 28.0896 28.1686 26.227 30.2186 24.3645C32.1748 22.5833 32.2998 19.9583 30.5248 18.0021C27.6873 14.8708 24.8373 11.7458 21.9936 8.61455C21.8873 8.50205 21.7873 8.3833 21.6498 8.2333C21.8686 8.18955 22.0373 8.1458 22.2123 8.1208C24.9623 7.7583 27.6436 8.0333 30.2623 8.97705C36.1811 11.1145 40.5186 16.9021 40.8811 23.1708C41.0311 25.7458 40.6561 28.2333 39.6436 30.6208C39.5561 30.827 39.5873 30.952 39.7311 31.1145C41.0311 32.5333 42.3248 33.9646 43.6248 35.3895C43.6998 35.4646 43.7561 35.5521 43.8311 35.6458Z" fill="#222222"/>
</svg>
