<svg width="177" height="58" viewBox="0 0 177 58" fill="none" xmlns="http://www.w3.org/2000/svg">
<g clip-path="url(#clip0_1370_22)">
<path d="M25.0623 53.1708C11.5561 53.1583 0.562329 42.1458 0.581079 28.6458C0.606079 15.127 11.6061 4.15205 25.1186 4.1708C38.6311 4.18955 49.6123 15.2083 49.5811 28.7146C49.5498 42.2146 38.5561 53.1833 25.0623 53.1708ZM43.8311 39.6458C48.7498 31.4958 47.8936 19.6333 39.2311 12.1646C30.7311 4.83955 17.9748 5.2333 9.97483 13.0395C1.81233 21.0083 1.04983 33.6645 8.26858 42.4395C15.4998 51.2333 26.7123 51.9458 33.8811 48.5145C32.5123 47.0083 31.1498 45.5083 29.7748 44.0145C29.7123 43.9458 29.5311 43.9208 29.4311 43.952C26.7186 44.7771 23.9561 44.9521 21.1936 44.3333C15.9561 43.1646 12.1373 40.1458 9.77483 35.327C8.41858 32.5583 7.96858 29.6083 8.29358 26.5458C8.38733 25.6645 8.59358 24.802 8.74358 23.927C8.78108 23.9208 8.81858 23.9146 8.85608 23.9146C8.91858 23.9958 8.98108 24.077 9.04983 24.1521C11.9186 27.3146 14.7936 30.4708 17.6623 33.6333C19.4623 35.6208 22.0873 35.752 24.0686 33.952C26.1186 32.0896 28.1686 30.227 30.2186 28.3645C32.1748 26.5833 32.2998 23.9583 30.5248 22.0021C27.6873 18.8708 24.8373 15.7458 21.9936 12.6145C21.8873 12.502 21.7873 12.3833 21.6498 12.2333C21.8686 12.1896 22.0373 12.1458 22.2123 12.1208C24.9623 11.7583 27.6436 12.0333 30.2623 12.977C36.1811 15.1145 40.5186 20.9021 40.8811 27.1708C41.0311 29.7458 40.6561 32.2333 39.6436 34.6208C39.5561 34.827 39.5873 34.952 39.7311 35.1145C41.0311 36.5333 42.3248 37.9646 43.6248 39.3895C43.6998 39.4646 43.7561 39.5521 43.8311 39.6458Z" fill="#222222"/>
</g>
<path d="M83.45 41.1708C84.55 41.1708 85.45 41.0875 86.15 40.9208C86.8833 40.7208 87.4667 40.4708 87.9 40.1708C88.3333 39.8375 88.6333 39.4541 88.8 39.0208C88.9667 38.5875 89.05 38.1041 89.05 37.5708C89.05 36.4375 88.5167 35.5041 87.45 34.7708C86.3833 34.0041 84.55 33.1875 81.95 32.3208C80.8167 31.9208 79.6833 31.4708 78.55 30.9708C77.4167 30.4375 76.4 29.7875 75.5 29.0208C74.6 28.2208 73.8667 27.2708 73.3 26.1708C72.7333 25.0375 72.45 23.6708 72.45 22.0708C72.45 20.4708 72.75 19.0375 73.35 17.7708C73.95 16.4708 74.8 15.3708 75.9 14.4708C77 13.5708 78.3333 12.8875 79.9 12.4208C81.4667 11.9208 83.2333 11.6708 85.2 11.6708C87.5333 11.6708 89.55 11.9208 91.25 12.4208C92.95 12.9208 94.35 13.4708 95.45 14.0708L93.2 20.2208C92.2333 19.7208 91.15 19.2875 89.95 18.9208C88.7833 18.5208 87.3667 18.3208 85.7 18.3208C83.8333 18.3208 82.4833 18.5875 81.65 19.1208C80.85 19.6208 80.45 20.4041 80.45 21.4708C80.45 22.1041 80.6 22.6375 80.9 23.0708C81.2 23.5041 81.6167 23.9041 82.15 24.2708C82.7167 24.6041 83.35 24.9208 84.05 25.2208C84.7833 25.4875 85.5833 25.7708 86.45 26.0708C88.25 26.7375 89.8167 27.4041 91.15 28.0708C92.4833 28.7041 93.5833 29.4541 94.45 30.3208C95.35 31.1875 96.0167 32.2041 96.45 33.3708C96.8833 34.5375 97.1 35.9541 97.1 37.6208C97.1 40.8541 95.9667 43.3708 93.7 45.1708C91.4333 46.9375 88.0167 47.8208 83.45 47.8208C81.9167 47.8208 80.5333 47.7208 79.3 47.5208C78.0667 47.3541 76.9667 47.1375 76 46.8708C75.0667 46.6041 74.25 46.3208 73.55 46.0208C72.8833 45.7208 72.3167 45.4375 71.85 45.1708L74.05 38.9708C75.0833 39.5375 76.35 40.0541 77.85 40.5208C79.3833 40.9541 81.25 41.1708 83.45 41.1708ZM112.302 12.4708C112.902 13.5708 113.585 14.9375 114.352 16.5708C115.152 18.1708 115.968 19.9208 116.802 21.8208C117.668 23.6875 118.518 25.6041 119.352 27.5708C120.185 29.5375 120.968 31.3875 121.702 33.1208C122.435 31.3875 123.218 29.5375 124.052 27.5708C124.885 25.6041 125.718 23.6875 126.552 21.8208C127.418 19.9208 128.235 18.1708 129.002 16.5708C129.802 14.9375 130.502 13.5708 131.102 12.4708H138.202C138.535 14.7708 138.835 17.3541 139.102 20.2208C139.402 23.0541 139.652 26.0208 139.852 29.1208C140.085 32.1875 140.285 35.2708 140.452 38.3708C140.652 41.4708 140.818 44.3875 140.952 47.1208H133.352C133.252 43.7541 133.118 40.0875 132.952 36.1208C132.785 32.1541 132.535 28.1541 132.202 24.1208C131.602 25.5208 130.935 27.0708 130.202 28.7708C129.468 30.4708 128.735 32.1708 128.002 33.8708C127.302 35.5708 126.618 37.2041 125.952 38.7708C125.285 40.3041 124.718 41.6208 124.252 42.7208H118.802C118.335 41.6208 117.768 40.3041 117.102 38.7708C116.435 37.2041 115.735 35.5708 115.002 33.8708C114.302 32.1708 113.585 30.4708 112.852 28.7708C112.118 27.0708 111.452 25.5208 110.852 24.1208C110.518 28.1541 110.268 32.1541 110.102 36.1208C109.935 40.0875 109.802 43.7541 109.702 47.1208H102.102C102.235 44.3875 102.385 41.4708 102.552 38.3708C102.752 35.2708 102.952 32.1875 103.152 29.1208C103.385 26.0208 103.635 23.0541 103.902 20.2208C104.202 17.3541 104.518 14.7708 104.852 12.4708H112.302ZM163.775 47.8208C158.141 47.8208 153.841 46.2541 150.875 43.1208C147.941 39.9875 146.475 35.5375 146.475 29.7708C146.475 26.9041 146.925 24.3541 147.825 22.1208C148.725 19.8541 149.958 17.9541 151.525 16.4208C153.091 14.8541 154.958 13.6708 157.125 12.8708C159.291 12.0708 161.641 11.6708 164.175 11.6708C165.641 11.6708 166.975 11.7875 168.175 12.0208C169.375 12.2208 170.425 12.4708 171.325 12.7708C172.225 13.0375 172.975 13.3208 173.575 13.6208C174.175 13.9208 174.608 14.1541 174.875 14.3208L172.625 20.6208C171.558 20.0541 170.308 19.5708 168.875 19.1708C167.475 18.7708 165.875 18.5708 164.075 18.5708C162.875 18.5708 161.691 18.7708 160.525 19.1708C159.391 19.5708 158.375 20.2208 157.475 21.1208C156.608 21.9875 155.908 23.1208 155.375 24.5208C154.841 25.9208 154.575 27.6208 154.575 29.6208C154.575 31.2208 154.741 32.7208 155.075 34.1208C155.441 35.4875 156.008 36.6708 156.775 37.6708C157.575 38.6708 158.608 39.4708 159.875 40.0708C161.141 40.6375 162.675 40.9208 164.475 40.9208C165.608 40.9208 166.625 40.8541 167.525 40.7208C168.425 40.5875 169.225 40.4375 169.925 40.2708C170.625 40.0708 171.241 39.8541 171.775 39.6208C172.308 39.3875 172.791 39.1708 173.225 38.9708L175.375 45.2208C174.275 45.8875 172.725 46.4875 170.725 47.0208C168.725 47.5541 166.408 47.8208 163.775 47.8208Z" fill="#222222"/>
<defs>
<clipPath id="clip0_1370_22">
<rect width="50" height="50" fill="white" transform="translate(0 3.62079)"/>
</clipPath>
</defs>
</svg>
