<svg width="31" height="31" viewBox="0 0 31 31" fill="none" xmlns="http://www.w3.org/2000/svg">
<g clip-path="url(#clip0_1422_512)">
<path d="M28.7537 3.22076H2.68382C1.59858 3.22076 0.71875 4.10059 0.71875 5.18583V21.6924C0.71875 22.7776 1.59858 23.6574 2.68382 23.6574H11.3367L14.215 27.0795C14.5883 27.5234 15.1387 27.7797 15.7188 27.7797C16.2989 27.7797 16.8493 27.5235 17.2227 27.0795L20.101 23.6575H28.7537C29.839 23.6575 30.7188 22.7777 30.7188 21.6924V5.18589C30.7188 4.10059 29.839 3.22076 28.7537 3.22076ZM28.7537 21.6924H19.186L15.7188 25.8146L12.2516 21.6924H2.68382V5.18583H28.7537V21.6924Z" fill="#222222"/>
<path d="M6.31261 10.784H15.2864C15.829 10.784 16.2689 10.3441 16.2689 9.8015C16.2689 9.25888 15.829 8.81897 15.2864 8.81897H6.31261C5.76999 8.81897 5.33008 9.25888 5.33008 9.8015C5.33008 10.3441 5.76999 10.784 6.31261 10.784Z" fill="#222222"/>
<path d="M5.36914 15.8277C5.36914 16.3703 5.80905 16.8102 6.35167 16.8102H25.0853C25.6279 16.8102 26.0678 16.3703 26.0678 15.8277C26.0678 15.2851 25.6279 14.8452 25.0853 14.8452H6.35167C5.80905 14.8452 5.36914 15.2851 5.36914 15.8277Z" fill="#222222"/>
</g>
<defs>
<clipPath id="clip0_1422_512">
<rect width="30" height="30" fill="white" transform="translate(0.71875 0.500244)"/>
</clipPath>
</defs>
</svg>
