<svg width="16" height="17" viewBox="0 0 16 17" fill="none" xmlns="http://www.w3.org/2000/svg">
<g clip-path="url(#clip0_1370_538)">
<path d="M12.6451 10.0518C12.3176 9.71068 11.9225 9.52833 11.5037 9.52833C11.0884 9.52833 10.6899 9.70731 10.3488 10.0484L9.28172 11.1121C9.19392 11.0648 9.10612 11.0209 9.0217 10.977C8.90013 10.9162 8.78532 10.8588 8.68739 10.798C7.68782 10.1632 6.77943 9.33585 5.90819 8.26537C5.48608 7.73181 5.20242 7.28269 4.99643 6.8268C5.27333 6.57353 5.52998 6.31014 5.77987 6.05687C5.87442 5.96231 5.96898 5.86438 6.06353 5.76983C6.77268 5.06068 6.77268 4.14216 6.06353 3.43301L5.14163 2.51111C5.03695 2.40643 4.92889 2.29837 4.82758 2.19031C4.62497 1.98094 4.41222 1.76482 4.19272 1.5622C3.86516 1.23802 3.47344 1.0658 3.06146 1.0658C2.64947 1.0658 2.251 1.23802 1.91331 1.5622C1.90993 1.56558 1.90993 1.56558 1.90655 1.56896L0.758404 2.72724C0.326159 3.15948 0.0796448 3.68628 0.0256142 4.2975C-0.0554316 5.28356 0.234983 6.20208 0.457859 6.80316C1.00492 8.27887 1.82213 9.64652 3.04119 11.1121C4.52028 12.8782 6.29991 14.2729 8.33281 15.2556C9.1095 15.6237 10.1462 16.0593 11.3045 16.1336C11.3754 16.1369 11.4497 16.1403 11.5172 16.1403C12.2973 16.1403 12.9524 15.86 13.4657 15.3028C13.4691 15.2961 13.4758 15.2927 13.4792 15.286C13.6548 15.0732 13.8574 14.8807 14.0702 14.6747C14.2154 14.5363 14.364 14.3911 14.5092 14.2391C14.8435 13.8913 15.0191 13.4861 15.0191 13.0707C15.0191 12.652 14.8401 12.2501 14.499 11.9124L12.6451 10.0518ZM13.8541 13.6076C13.8507 13.6076 13.8507 13.611 13.8541 13.6076C13.7224 13.7495 13.5873 13.8778 13.4421 14.0196C13.2226 14.229 12.9997 14.4485 12.7903 14.695C12.4493 15.0597 12.0474 15.2319 11.5206 15.2319C11.47 15.2319 11.4159 15.2319 11.3653 15.2286C10.3623 15.1644 9.43031 14.7727 8.73129 14.4384C6.81996 13.5131 5.14163 12.1995 3.74697 10.5346C2.59544 9.14674 1.82551 7.86351 1.31559 6.48574C1.00154 5.64489 0.886726 4.98976 0.93738 4.37179C0.971149 3.97669 1.12311 3.64913 1.40339 3.36885L2.55492 2.21732C2.72039 2.06198 2.89599 1.97756 3.06821 1.97756C3.28096 1.97756 3.45318 2.10588 3.56124 2.21395C3.56462 2.21732 3.56799 2.2207 3.57137 2.22408C3.77736 2.41656 3.97322 2.6158 4.17921 2.82854C4.2839 2.9366 4.39196 3.04466 4.50002 3.1561L5.42192 4.078C5.77987 4.43595 5.77987 4.76689 5.42192 5.12484C5.32399 5.22277 5.22943 5.3207 5.1315 5.41525C4.84784 5.70567 4.57769 5.97582 4.2839 6.23922C4.27714 6.24597 4.27039 6.24935 4.26701 6.25611C3.9766 6.54652 4.03063 6.83018 4.09141 7.02266C4.09479 7.03279 4.09817 7.04292 4.10154 7.05306C4.3413 7.63388 4.679 8.18094 5.19229 8.83269L5.19566 8.83606C6.12769 9.98421 7.11037 10.8791 8.19436 11.5646C8.33281 11.6524 8.47464 11.7233 8.60972 11.7909C8.73129 11.8516 8.8461 11.9091 8.94403 11.9698C8.95754 11.9766 8.97105 11.9867 8.98456 11.9935C9.09937 12.0509 9.20743 12.0779 9.31887 12.0779C9.59915 12.0779 9.77475 11.9023 9.83216 11.8449L10.9871 10.69C11.1019 10.5752 11.2842 10.4367 11.497 10.4367C11.7063 10.4367 11.8786 10.5684 11.9833 10.6832C11.9866 10.6866 11.9866 10.6866 11.99 10.69L13.8507 12.5507C14.1985 12.8951 14.1985 13.2497 13.8541 13.6076Z" fill="#5EBD56"/>
<path d="M8.64673 3.94635C9.53148 4.09494 10.3352 4.51367 10.9768 5.15529C11.6184 5.7969 12.0338 6.6006 12.1857 7.48535C12.2229 7.70823 12.4154 7.86357 12.6349 7.86357C12.6619 7.86357 12.6855 7.86019 12.7125 7.85681C12.9624 7.81629 13.1279 7.57991 13.0874 7.33002C12.905 6.25954 12.3985 5.28361 11.6252 4.5103C10.8519 3.73699 9.87593 3.23045 8.80545 3.0481C8.55556 3.00757 8.32255 3.17304 8.27865 3.41956C8.23475 3.66607 8.39684 3.90583 8.64673 3.94635Z" fill="#5EBD56"/>
<path d="M15.9819 7.19832C15.6813 5.43557 14.8506 3.83154 13.5741 2.55507C12.2977 1.2786 10.6936 0.447876 8.93089 0.147331C8.68437 0.103431 8.45137 0.272277 8.40747 0.518791C8.36694 0.768682 8.53241 1.00169 8.7823 1.04559C10.3559 1.31236 11.7911 2.05866 12.9325 3.19668C14.0739 4.33808 14.8168 5.77326 15.0836 7.3469C15.1208 7.56978 15.3132 7.72512 15.5327 7.72512C15.5598 7.72512 15.5834 7.72174 15.6104 7.71836C15.8569 7.68122 16.0258 7.44483 15.9819 7.19832Z" fill="#5EBD56"/>
</g>
<defs>
<clipPath id="clip0_1370_538">
<rect width="16" height="16" fill="white" transform="translate(0 0.140381)"/>
</clipPath>
</defs>
</svg>
