<svg width="25" height="25" viewBox="0 0 25 25" fill="none" xmlns="http://www.w3.org/2000/svg">
<path d="M13.8916 12.6363H16.8916L12.8916 16.6363L8.8916 12.6363H11.8916V8.63629H13.8916V12.6363ZM15.8916 4.63629H5.8916V20.6363H19.8916V8.63629H15.8916V4.63629ZM3.8916 3.62829C3.8916 3.08029 4.3386 2.63629 4.8906 2.63629H16.8916L21.8916 7.63629V21.6293C21.8925 21.7606 21.8676 21.8908 21.8182 22.0125C21.7688 22.1342 21.6959 22.2449 21.6037 22.3385C21.5115 22.432 21.4017 22.5064 21.2808 22.5575C21.1598 22.6086 21.0299 22.6354 20.8986 22.6363H4.8846C4.62198 22.6345 4.37062 22.5294 4.18482 22.3438C3.99902 22.1582 3.8937 21.9069 3.8916 21.6443V3.62829Z" fill="white"/>
</svg>
