<svg width="375" height="812" viewBox="0 0 375 812" fill="none" xmlns="http://www.w3.org/2000/svg">
<g clip-path="url(#clip0_1411_38)">
<rect width="375" height="812" fill="#F7F8FA"/>
<rect width="375" height="812" fill="#FFB040"/>
<mask id="mask0_1411_38" style="mask-type:alpha" maskUnits="userSpaceOnUse" x="0" y="0" width="375" height="812">
<rect width="375" height="812" fill="white"/>
</mask>
<g mask="url(#mask0_1411_38)">
<g style="mix-blend-mode:soft-light" opacity="0.158022">
<path d="M-170.062 433.895C-92.0094 399.726 -23.3983 392.485 35.3239 414.568C90.8419 435.447 121.327 492.54 185.026 500.374C248.857 508.225 299.811 458.026 351.487 439.373C432.531 410.123 530.759 431.198 643.845 492.2L708.993 59.035L-56.8559 -164L-170.062 433.895Z" fill="white"/>
</g>
<g style="mix-blend-mode:soft-light" opacity="0.158022">
<path d="M3.56736 317.439C57.0585 260.268 112.068 229.331 169.059 226.825C222.942 224.456 268.517 261.826 324.689 245.443C380.978 229.027 406.124 168.063 442.93 133.577C500.656 79.4895 590.427 61.8495 706.651 72.6833L609.499 -318L-111 -230.235L3.56736 317.439Z" fill="white"/>
</g>
</g>
<path d="M194.626 332.011V347.947H174.178C173.858 347.947 173.474 347.979 173.026 348.043C172.578 348.043 172.098 348.075 171.586 348.139C170.754 348.331 169.986 348.715 169.282 349.291C168.642 349.867 168.322 350.795 168.322 352.075C168.322 352.523 168.386 352.971 168.514 353.419C168.642 353.867 168.834 354.283 169.09 354.667C169.666 355.563 170.594 356.555 171.874 357.643C173.218 358.667 175.042 359.979 177.346 361.579C178.818 362.667 180.226 363.691 181.57 364.651C182.978 365.611 184.29 366.571 185.506 367.531C188.514 369.963 190.914 372.523 192.706 375.211C194.498 377.899 195.394 381.291 195.394 385.387C195.394 389.867 193.634 393.963 190.114 397.675C186.658 401.387 180.258 403.243 170.914 403.243H144.13V387.307H166.594C168.578 387.307 169.986 387.019 170.818 386.443C171.714 385.867 172.258 385.227 172.45 384.523C172.514 384.331 172.546 384.139 172.546 383.947C172.61 383.691 172.642 383.467 172.642 383.275C172.642 382.635 172.546 382.059 172.354 381.547C172.162 380.971 171.874 380.427 171.49 379.915C170.85 379.147 169.986 378.315 168.898 377.419C167.81 376.523 166.466 375.467 164.866 374.251C163.458 373.163 162.05 372.107 160.642 371.083C159.298 370.059 157.986 369.035 156.706 368.011C153.506 365.515 150.85 362.859 148.738 360.043C146.626 357.163 145.57 353.515 145.57 349.099C145.57 348.779 145.57 348.459 145.57 348.139C145.57 347.819 145.602 347.499 145.666 347.179C146.05 343.403 147.81 339.947 150.946 336.811C154.146 333.611 159.714 332.011 167.65 332.011H194.626ZM250.474 391.435H237.706C237.386 389.579 236.842 387.147 236.074 384.139C235.306 381.067 234.218 377.899 232.81 374.635C231.786 372.203 230.57 369.867 229.162 367.627C227.754 365.323 226.122 363.243 224.266 361.387V403.243H204.01V332.011H224.266C225.226 332.907 226.218 333.963 227.242 335.179C228.33 336.331 229.418 337.579 230.506 338.923C231.914 340.715 233.29 342.603 234.634 344.587C235.978 346.571 237.226 348.587 238.378 350.635C239.594 352.811 240.682 354.955 241.642 357.067C242.666 359.179 243.434 361.131 243.946 362.923H244.33C244.778 361.067 245.514 359.051 246.538 356.875C247.562 354.635 248.778 352.363 250.186 350.059C251.146 348.331 252.202 346.635 253.354 344.971C254.506 343.243 255.658 341.611 256.81 340.075C258.026 338.411 259.242 336.907 260.458 335.563C261.674 334.155 262.826 332.971 263.914 332.011H284.17V403.243H263.914V361.387C263.082 362.283 262.09 363.435 260.938 364.843C259.85 366.251 258.73 368.011 257.578 370.123C256.234 372.555 254.922 375.531 253.642 379.051C252.362 382.507 251.306 386.635 250.474 391.435ZM345.906 332.011V347.467C344.498 347.019 342.994 346.667 341.394 346.411C339.858 346.155 338.162 346.027 336.306 346.027C329.906 346.027 324.562 347.819 320.274 351.403C316.05 354.923 313.938 360.267 313.938 367.435C313.938 373.259 315.058 377.675 317.298 380.683C319.538 383.691 322.002 385.803 324.69 387.019C326.738 387.979 328.69 388.587 330.546 388.843C332.466 389.035 333.842 389.131 334.674 389.131C335.826 389.131 337.01 389.067 338.226 388.939C339.506 388.811 340.786 388.619 342.066 388.363C342.706 388.235 343.346 388.075 343.986 387.883C344.626 387.691 345.266 387.499 345.906 387.307V403.243C343.922 403.691 341.65 404.043 339.09 404.299C336.594 404.619 333.682 404.779 330.354 404.779C320.498 404.779 313.01 402.827 307.89 398.923C302.77 395.019 299.122 390.699 296.946 385.963C295.026 381.803 293.874 377.931 293.49 374.347C293.17 370.763 293.01 368.459 293.01 367.435C293.01 355.211 296.818 345.995 304.434 339.787C312.05 333.515 321.394 330.379 332.466 330.379C335.026 330.379 337.33 330.539 339.378 330.859C341.426 331.115 343.25 331.435 344.85 331.819C345.042 331.819 345.202 331.851 345.33 331.915C345.522 331.915 345.714 331.947 345.906 332.011Z" fill="white"/>
<path d="M75.7125 403.243C48.7 403.218 26.7125 381.193 26.75 354.193C26.8 327.156 48.8 305.206 75.825 305.243C102.85 305.281 124.813 327.318 124.75 354.331C124.688 381.331 102.7 403.268 75.7125 403.243ZM113.25 376.193C123.088 359.893 121.375 336.168 104.05 321.231C87.05 306.581 61.5375 307.368 45.5375 322.981C29.2125 338.918 27.6875 364.231 42.125 381.781C56.5875 399.368 79.0125 400.793 93.35 393.931C90.6125 390.918 87.8875 387.918 85.1375 384.931C85.0125 384.793 84.65 384.743 84.45 384.806C79.025 386.456 73.5 386.806 67.975 385.568C57.5 383.231 49.8625 377.193 45.1375 367.556C42.425 362.018 41.525 356.118 42.175 349.993C42.3625 348.231 42.775 346.506 43.075 344.756C43.15 344.743 43.225 344.731 43.3 344.731C43.425 344.893 43.55 345.056 43.6875 345.206C49.425 351.531 55.175 357.843 60.9125 364.168C64.5125 368.143 69.7625 368.406 73.725 364.806C77.825 361.081 81.925 357.356 86.025 353.631C89.9375 350.068 90.1875 344.818 86.6375 340.906C80.9625 334.643 75.2625 328.393 69.575 322.131C69.3625 321.906 69.1625 321.668 68.8875 321.368C69.325 321.281 69.6625 321.193 70.0125 321.143C75.5125 320.418 80.875 320.968 86.1125 322.856C97.9501 327.131 106.625 338.706 107.35 351.243C107.65 356.393 106.9 361.368 104.875 366.143C104.7 366.556 104.763 366.806 105.05 367.131C107.65 369.968 110.238 372.831 112.838 375.681C112.988 375.831 113.1 376.006 113.25 376.193Z" fill="white"/>
<path d="M41.3877 433.523H43.3077L38.7277 438.683L43.6877 444.243H41.6477L36.8077 438.803V444.243H35.0477V433.523H36.8077V438.723L41.3877 433.523ZM49.6936 433.343C51.0003 433.343 51.9669 433.63 52.5936 434.203C53.2203 434.777 53.5336 435.69 53.5336 436.943V444.243H52.2536L51.9136 442.723H51.8336C51.5269 443.11 51.2069 443.437 50.8736 443.703C50.5536 443.957 50.1803 444.143 49.7536 444.263C49.3403 444.383 48.8336 444.443 48.2336 444.443C47.5936 444.443 47.0136 444.33 46.4936 444.103C45.9869 443.877 45.5869 443.53 45.2936 443.063C45.0003 442.583 44.8536 441.983 44.8536 441.263C44.8536 440.197 45.2736 439.377 46.1136 438.803C46.9536 438.217 48.2469 437.897 49.9936 437.843L51.8136 437.783V437.143C51.8136 436.25 51.6203 435.63 51.2336 435.283C50.8469 434.937 50.3003 434.763 49.5936 434.763C49.0336 434.763 48.5003 434.85 47.9936 435.023C47.4869 435.183 47.0136 435.37 46.5736 435.583L46.0336 434.263C46.5003 434.01 47.0536 433.797 47.6936 433.623C48.3336 433.437 49.0003 433.343 49.6936 433.343ZM50.2136 439.063C48.8803 439.117 47.9536 439.33 47.4336 439.703C46.9269 440.077 46.6736 440.603 46.6736 441.283C46.6736 441.883 46.8536 442.323 47.2136 442.603C47.5869 442.883 48.0603 443.023 48.6336 443.023C49.5403 443.023 50.2936 442.777 50.8936 442.283C51.4936 441.777 51.7936 441.003 51.7936 439.963V439.003L50.2136 439.063ZM58.3845 437.423C58.3845 438.05 58.5579 438.517 58.9045 438.823C59.2645 439.117 59.7779 439.263 60.4445 439.263C61.1112 439.263 61.7179 439.163 62.2645 438.963C62.8112 438.75 63.3712 438.47 63.9445 438.123V433.523H65.7045V444.243H63.9445V439.463C63.3445 439.85 62.7512 440.157 62.1645 440.383C61.5912 440.597 60.8979 440.703 60.0845 440.703C58.9912 440.703 58.1379 440.417 57.5245 439.843C56.9245 439.27 56.6245 438.503 56.6245 437.543V433.523H58.3845V437.423ZM73.2502 433.323C74.1702 433.323 74.9568 433.523 75.6102 433.923C76.2768 434.323 76.7835 434.89 77.1302 435.623C77.4902 436.343 77.6702 437.19 77.6702 438.163V439.223H70.3302C70.3568 440.437 70.6635 441.363 71.2502 442.003C71.8502 442.63 72.6835 442.943 73.7502 442.943C74.4302 442.943 75.0302 442.883 75.5502 442.763C76.0835 442.63 76.6302 442.443 77.1902 442.203V443.743C76.6435 443.983 76.1035 444.157 75.5702 444.263C75.0368 444.383 74.4035 444.443 73.6702 444.443C72.6568 444.443 71.7568 444.237 70.9702 443.823C70.1968 443.41 69.5902 442.797 69.1502 441.983C68.7235 441.157 68.5102 440.15 68.5102 438.963C68.5102 437.79 68.7035 436.783 69.0902 435.943C69.4902 435.103 70.0435 434.457 70.7502 434.003C71.4702 433.55 72.3035 433.323 73.2502 433.323ZM73.2302 434.763C72.3902 434.763 71.7235 435.037 71.2302 435.583C70.7502 436.117 70.4635 436.863 70.3702 437.823H75.8302C75.8302 437.21 75.7368 436.677 75.5502 436.223C75.3635 435.77 75.0768 435.417 74.6902 435.163C74.3168 434.897 73.8302 434.763 73.2302 434.763ZM84.6992 444.443C83.7526 444.443 82.9059 444.25 82.1592 443.863C81.4259 443.477 80.8459 442.877 80.4192 442.063C80.0059 441.25 79.7992 440.21 79.7992 438.943C79.7992 437.623 80.0192 436.55 80.4592 435.723C80.8992 434.897 81.4926 434.29 82.2392 433.903C82.9992 433.517 83.8592 433.323 84.8192 433.323C85.3659 433.323 85.8926 433.383 86.3992 433.503C86.9059 433.61 87.3192 433.743 87.6392 433.903L87.0992 435.363C86.7792 435.243 86.4059 435.13 85.9792 435.023C85.5526 434.917 85.1526 434.863 84.7792 434.863C84.0592 434.863 83.4659 435.017 82.9992 435.323C82.5326 435.63 82.1859 436.083 81.9592 436.683C81.7326 437.283 81.6192 438.03 81.6192 438.923C81.6192 439.777 81.7326 440.503 81.9592 441.103C82.1859 441.703 82.5259 442.157 82.9792 442.463C83.4326 442.77 83.9992 442.923 84.6792 442.923C85.2659 442.923 85.7792 442.863 86.2192 442.743C86.6726 442.623 87.0859 442.477 87.4592 442.303V443.863C87.0992 444.05 86.6992 444.19 86.2592 444.283C85.8326 444.39 85.3126 444.443 84.6992 444.443ZM97.4086 435.003H93.9086V444.243H92.1686V435.003H88.7086V433.523H97.4086V435.003ZM108.14 436.223C108.14 436.89 107.94 437.41 107.54 437.783C107.14 438.157 106.627 438.41 106 438.543V438.623C106.667 438.717 107.247 438.957 107.74 439.343C108.234 439.717 108.48 440.303 108.48 441.103C108.48 441.557 108.394 441.977 108.22 442.363C108.06 442.75 107.807 443.083 107.46 443.363C107.114 443.643 106.667 443.863 106.12 444.023C105.574 444.17 104.914 444.243 104.14 444.243H99.5203V433.523H104.12C104.88 433.523 105.56 433.61 106.16 433.783C106.774 433.943 107.254 434.223 107.6 434.623C107.96 435.01 108.14 435.543 108.14 436.223ZM106.66 441.103C106.66 440.49 106.427 440.05 105.96 439.783C105.494 439.517 104.807 439.383 103.9 439.383H101.28V442.823H103.94C104.82 442.823 105.494 442.697 105.96 442.443C106.427 442.177 106.66 441.73 106.66 441.103ZM106.36 436.443C106.36 435.937 106.174 435.57 105.8 435.343C105.44 435.103 104.847 434.983 104.02 434.983H101.28V437.923H103.7C104.567 437.923 105.227 437.803 105.68 437.563C106.134 437.323 106.36 436.95 106.36 436.443ZM120.364 438.863C120.364 439.757 120.244 440.55 120.004 441.243C119.777 441.923 119.444 442.503 119.004 442.983C118.577 443.463 118.05 443.83 117.424 444.083C116.81 444.323 116.124 444.443 115.364 444.443C114.657 444.443 114.004 444.323 113.404 444.083C112.804 443.83 112.284 443.463 111.844 442.983C111.404 442.503 111.057 441.923 110.804 441.243C110.564 440.55 110.444 439.757 110.444 438.863C110.444 437.677 110.644 436.677 111.044 435.863C111.444 435.037 112.017 434.41 112.764 433.983C113.51 433.543 114.397 433.323 115.424 433.323C116.397 433.323 117.25 433.543 117.984 433.983C118.73 434.41 119.31 435.037 119.724 435.863C120.15 436.677 120.364 437.677 120.364 438.863ZM112.264 438.863C112.264 439.703 112.37 440.437 112.584 441.063C112.81 441.677 113.157 442.15 113.624 442.483C114.09 442.817 114.684 442.983 115.404 442.983C116.124 442.983 116.717 442.817 117.184 442.483C117.65 442.15 117.99 441.677 118.204 441.063C118.43 440.437 118.544 439.703 118.544 438.863C118.544 438.01 118.43 437.283 118.204 436.683C117.977 436.083 117.63 435.623 117.164 435.303C116.71 434.97 116.117 434.803 115.384 434.803C114.29 434.803 113.497 435.163 113.004 435.883C112.51 436.603 112.264 437.597 112.264 438.863ZM121.673 445.363C121.953 445.203 122.186 445.043 122.373 444.883C122.56 444.723 122.693 444.59 122.773 444.483C122.866 444.39 122.92 444.33 122.933 444.303L122.733 444.243C122.493 444.07 122.373 443.83 122.373 443.523C122.386 443.363 122.453 443.223 122.573 443.103C122.706 442.983 122.86 442.923 123.033 442.923C123.206 442.923 123.366 443.003 123.513 443.163C123.673 443.31 123.753 443.477 123.753 443.663C123.766 444.45 123.34 445.203 122.473 445.923L121.673 445.363ZM131.343 437.803C131.343 436.243 131.496 434.917 131.803 433.823C132.123 432.717 132.61 431.837 133.263 431.183C133.93 430.517 134.783 430.07 135.823 429.843C136.69 429.657 137.536 429.49 138.363 429.343C139.19 429.197 139.963 429.063 140.683 428.943L140.983 430.483C140.636 430.537 140.25 430.603 139.823 430.683C139.396 430.75 138.963 430.823 138.523 430.903C138.083 430.97 137.656 431.043 137.243 431.123C136.843 431.19 136.49 431.257 136.183 431.323C135.743 431.417 135.35 431.577 135.003 431.803C134.656 432.017 134.356 432.31 134.103 432.683C133.863 433.057 133.67 433.517 133.523 434.063C133.376 434.61 133.29 435.257 133.263 436.003H133.383C133.57 435.75 133.823 435.49 134.143 435.223C134.476 434.957 134.87 434.73 135.323 434.543C135.79 434.357 136.316 434.263 136.903 434.263C137.836 434.263 138.61 434.47 139.223 434.883C139.85 435.283 140.316 435.843 140.623 436.563C140.943 437.283 141.103 438.123 141.103 439.083C141.103 440.27 140.896 441.263 140.483 442.063C140.07 442.863 139.496 443.463 138.763 443.863C138.03 444.25 137.176 444.443 136.203 444.443C135.47 444.443 134.803 444.303 134.203 444.023C133.603 443.73 133.09 443.303 132.663 442.743C132.236 442.183 131.91 441.49 131.683 440.663C131.456 439.837 131.343 438.883 131.343 437.803ZM136.343 442.983C136.93 442.983 137.436 442.863 137.863 442.623C138.303 442.383 138.643 441.99 138.883 441.443C139.123 440.897 139.243 440.17 139.243 439.263C139.243 438.17 139.036 437.31 138.623 436.683C138.223 436.043 137.556 435.723 136.623 435.723C136.036 435.723 135.503 435.857 135.023 436.123C134.543 436.377 134.143 436.67 133.823 437.003C133.503 437.337 133.276 437.617 133.143 437.843C133.143 438.497 133.19 439.13 133.283 439.743C133.376 440.357 133.536 440.91 133.763 441.403C134.003 441.883 134.33 442.27 134.743 442.563C135.17 442.843 135.703 442.983 136.343 442.983ZM143.876 444.243V433.523H145.636V437.923H148.416C149.349 437.923 150.116 438.037 150.716 438.263C151.316 438.49 151.762 438.83 152.056 439.283C152.349 439.723 152.496 440.283 152.496 440.963C152.496 441.63 152.349 442.21 152.056 442.703C151.776 443.197 151.329 443.577 150.716 443.843C150.116 444.11 149.322 444.243 148.336 444.243H143.876ZM148.176 442.823C148.936 442.823 149.556 442.697 150.036 442.443C150.516 442.177 150.756 441.717 150.756 441.063C150.756 440.41 150.536 439.97 150.096 439.743C149.656 439.503 149.022 439.383 148.196 439.383H145.636V442.823H148.176ZM154.276 444.243V433.523H156.036V444.243H154.276ZM163.742 444.443C162.796 444.443 161.949 444.25 161.202 443.863C160.469 443.477 159.889 442.877 159.462 442.063C159.049 441.25 158.842 440.21 158.842 438.943C158.842 437.623 159.062 436.55 159.502 435.723C159.942 434.897 160.536 434.29 161.282 433.903C162.042 433.517 162.902 433.323 163.862 433.323C164.409 433.323 164.936 433.383 165.442 433.503C165.949 433.61 166.362 433.743 166.682 433.903L166.142 435.363C165.822 435.243 165.449 435.13 165.022 435.023C164.596 434.917 164.196 434.863 163.822 434.863C163.102 434.863 162.509 435.017 162.042 435.323C161.576 435.63 161.229 436.083 161.002 436.683C160.776 437.283 160.662 438.03 160.662 438.923C160.662 439.777 160.776 440.503 161.002 441.103C161.229 441.703 161.569 442.157 162.022 442.463C162.476 442.77 163.042 442.923 163.722 442.923C164.309 442.923 164.822 442.863 165.262 442.743C165.716 442.623 166.129 442.477 166.502 442.303V443.863C166.142 444.05 165.742 444.19 165.302 444.283C164.876 444.39 164.356 444.443 163.742 444.443ZM176.452 435.003H172.952V444.243H171.212V435.003H167.752V433.523H176.452V435.003ZM183.663 433.323C184.983 433.323 186.043 433.783 186.843 434.703C187.657 435.623 188.063 437.01 188.063 438.863C188.063 440.077 187.877 441.103 187.503 441.943C187.143 442.77 186.63 443.397 185.963 443.823C185.31 444.237 184.537 444.443 183.643 444.443C183.097 444.443 182.61 444.37 182.183 444.223C181.757 444.077 181.39 443.89 181.083 443.663C180.79 443.423 180.537 443.163 180.323 442.883H180.203C180.23 443.11 180.257 443.397 180.283 443.743C180.31 444.09 180.323 444.39 180.323 444.643V449.043H178.563V433.523H180.003L180.243 434.983H180.323C180.537 434.677 180.79 434.397 181.083 434.143C181.39 433.89 181.75 433.69 182.163 433.543C182.59 433.397 183.09 433.323 183.663 433.323ZM183.343 434.803C182.623 434.803 182.043 434.943 181.603 435.223C181.163 435.49 180.843 435.897 180.643 436.443C180.443 436.99 180.337 437.683 180.323 438.523V438.863C180.323 439.743 180.417 440.49 180.603 441.103C180.79 441.717 181.103 442.183 181.543 442.503C181.997 442.823 182.61 442.983 183.383 442.983C184.037 442.983 184.57 442.803 184.983 442.443C185.41 442.083 185.723 441.597 185.923 440.983C186.137 440.357 186.243 439.643 186.243 438.843C186.243 437.617 186.003 436.637 185.523 435.903C185.057 435.17 184.33 434.803 183.343 434.803ZM200.188 438.863C200.188 439.757 200.068 440.55 199.828 441.243C199.601 441.923 199.268 442.503 198.828 442.983C198.401 443.463 197.875 443.83 197.248 444.083C196.635 444.323 195.948 444.443 195.188 444.443C194.481 444.443 193.828 444.323 193.228 444.083C192.628 443.83 192.108 443.463 191.668 442.983C191.228 442.503 190.881 441.923 190.628 441.243C190.388 440.55 190.268 439.757 190.268 438.863C190.268 437.677 190.468 436.677 190.868 435.863C191.268 435.037 191.841 434.41 192.588 433.983C193.335 433.543 194.221 433.323 195.248 433.323C196.221 433.323 197.075 433.543 197.808 433.983C198.555 434.41 199.135 435.037 199.548 435.863C199.975 436.677 200.188 437.677 200.188 438.863ZM192.088 438.863C192.088 439.703 192.195 440.437 192.408 441.063C192.635 441.677 192.981 442.15 193.448 442.483C193.915 442.817 194.508 442.983 195.228 442.983C195.948 442.983 196.541 442.817 197.008 442.483C197.475 442.15 197.815 441.677 198.028 441.063C198.255 440.437 198.368 439.703 198.368 438.863C198.368 438.01 198.255 437.283 198.028 436.683C197.801 436.083 197.455 435.623 196.988 435.303C196.535 434.97 195.941 434.803 195.208 434.803C194.115 434.803 193.321 435.163 192.828 435.883C192.335 436.603 192.088 437.597 192.088 438.863ZM210.182 435.003H206.682V444.243H204.942V435.003H201.482V433.523H210.182V435.003ZM216.354 433.343C217.66 433.343 218.627 433.63 219.254 434.203C219.88 434.777 220.194 435.69 220.194 436.943V444.243H218.914L218.574 442.723H218.494C218.187 443.11 217.867 443.437 217.534 443.703C217.214 443.957 216.84 444.143 216.414 444.263C216 444.383 215.494 444.443 214.894 444.443C214.254 444.443 213.674 444.33 213.154 444.103C212.647 443.877 212.247 443.53 211.954 443.063C211.66 442.583 211.514 441.983 211.514 441.263C211.514 440.197 211.934 439.377 212.774 438.803C213.614 438.217 214.907 437.897 216.654 437.843L218.474 437.783V437.143C218.474 436.25 218.28 435.63 217.894 435.283C217.507 434.937 216.96 434.763 216.254 434.763C215.694 434.763 215.16 434.85 214.654 435.023C214.147 435.183 213.674 435.37 213.234 435.583L212.694 434.263C213.16 434.01 213.714 433.797 214.354 433.623C214.994 433.437 215.66 433.343 216.354 433.343ZM216.874 439.063C215.54 439.117 214.614 439.33 214.094 439.703C213.587 440.077 213.334 440.603 213.334 441.283C213.334 441.883 213.514 442.323 213.874 442.603C214.247 442.883 214.72 443.023 215.294 443.023C216.2 443.023 216.954 442.777 217.554 442.283C218.154 441.777 218.454 441.003 218.454 439.963V439.003L216.874 439.063ZM222.025 445.363C222.305 445.203 222.538 445.043 222.725 444.883C222.911 444.723 223.045 444.59 223.125 444.483C223.218 444.39 223.271 444.33 223.285 444.303L223.085 444.243C222.845 444.07 222.725 443.83 222.725 443.523C222.738 443.363 222.805 443.223 222.925 443.103C223.058 442.983 223.211 442.923 223.385 442.923C223.558 442.923 223.718 443.003 223.865 443.163C224.025 443.31 224.105 443.477 224.105 443.663C224.118 444.45 223.691 445.203 222.825 445.923L222.025 445.363ZM234.015 433.523V437.983H239.835V433.523H241.595V444.243H239.835V439.463H234.015V444.243H232.255V433.523H234.015ZM249.049 433.343C250.356 433.343 251.322 433.63 251.949 434.203C252.576 434.777 252.889 435.69 252.889 436.943V444.243H251.609L251.269 442.723H251.189C250.882 443.11 250.562 443.437 250.229 443.703C249.909 443.957 249.536 444.143 249.109 444.263C248.696 444.383 248.189 444.443 247.589 444.443C246.949 444.443 246.369 444.33 245.849 444.103C245.342 443.877 244.942 443.53 244.649 443.063C244.356 442.583 244.209 441.983 244.209 441.263C244.209 440.197 244.629 439.377 245.469 438.803C246.309 438.217 247.602 437.897 249.349 437.843L251.169 437.783V437.143C251.169 436.25 250.976 435.63 250.589 435.283C250.202 434.937 249.656 434.763 248.949 434.763C248.389 434.763 247.856 434.85 247.349 435.023C246.842 435.183 246.369 435.37 245.929 435.583L245.389 434.263C245.856 434.01 246.409 433.797 247.049 433.623C247.689 433.437 248.356 433.343 249.049 433.343ZM249.569 439.063C248.236 439.117 247.309 439.33 246.789 439.703C246.282 440.077 246.029 440.603 246.029 441.283C246.029 441.883 246.209 442.323 246.569 442.603C246.942 442.883 247.416 443.023 247.989 443.023C248.896 443.023 249.649 442.777 250.249 442.283C250.849 441.777 251.149 441.003 251.149 439.963V439.003L249.569 439.063ZM264.16 433.523V442.763H265.72V447.963H264.02V444.243H256.56V447.963H254.88V442.763H255.74C256.353 441.91 256.86 440.983 257.26 439.983C257.673 438.97 257.98 437.917 258.18 436.823C258.393 435.717 258.507 434.617 258.52 433.523H264.16ZM260.08 434.903C260.027 435.81 259.887 436.75 259.66 437.723C259.433 438.683 259.14 439.603 258.78 440.483C258.433 441.363 258.027 442.123 257.56 442.763H262.46V434.903H260.08ZM271.961 433.323C272.881 433.323 273.668 433.523 274.321 433.923C274.988 434.323 275.494 434.89 275.841 435.623C276.201 436.343 276.381 437.19 276.381 438.163V439.223H269.041C269.068 440.437 269.374 441.363 269.961 442.003C270.561 442.63 271.394 442.943 272.461 442.943C273.141 442.943 273.741 442.883 274.261 442.763C274.794 442.63 275.341 442.443 275.901 442.203V443.743C275.354 443.983 274.814 444.157 274.281 444.263C273.748 444.383 273.114 444.443 272.381 444.443C271.368 444.443 270.468 444.237 269.681 443.823C268.908 443.41 268.301 442.797 267.861 441.983C267.434 441.157 267.221 440.15 267.221 438.963C267.221 437.79 267.414 436.783 267.801 435.943C268.201 435.103 268.754 434.457 269.461 434.003C270.181 433.55 271.014 433.323 271.961 433.323ZM271.941 434.763C271.101 434.763 270.434 435.037 269.941 435.583C269.461 436.117 269.174 436.863 269.081 437.823H274.541C274.541 437.21 274.448 436.677 274.261 436.223C274.074 435.77 273.788 435.417 273.401 435.163C273.028 434.897 272.541 434.763 271.941 434.763ZM269.001 430.623C269.001 430.277 269.094 430.03 269.281 429.883C269.468 429.723 269.688 429.643 269.941 429.643C270.194 429.643 270.414 429.723 270.601 429.883C270.788 430.03 270.881 430.277 270.881 430.623C270.881 430.957 270.788 431.21 270.601 431.383C270.414 431.543 270.194 431.623 269.941 431.623C269.688 431.623 269.468 431.543 269.281 431.383C269.094 431.21 269.001 430.957 269.001 430.623ZM272.761 430.623C272.761 430.277 272.848 430.03 273.021 429.883C273.208 429.723 273.428 429.643 273.681 429.643C273.934 429.643 274.154 429.723 274.341 429.883C274.528 430.03 274.621 430.277 274.621 430.623C274.621 430.957 274.528 431.21 274.341 431.383C274.154 431.543 273.934 431.623 273.681 431.623C273.428 431.623 273.208 431.543 273.021 431.383C272.848 431.21 272.761 430.957 272.761 430.623ZM291.97 433.523L287.55 438.723L292.35 444.243H290.35L285.71 438.803V444.243H284.07V438.803L279.43 444.243H277.43L282.23 438.723L277.81 433.523H279.73L284.07 438.723V433.523H285.71V438.723L290.07 433.523H291.97ZM295.87 433.523V437.983H301.69V433.523H303.45V444.243H301.69V439.463H295.87V444.243H294.11V433.523H295.87ZM316.165 438.863C316.165 439.757 316.045 440.55 315.805 441.243C315.578 441.923 315.245 442.503 314.805 442.983C314.378 443.463 313.851 443.83 313.225 444.083C312.611 444.323 311.925 444.443 311.165 444.443C310.458 444.443 309.805 444.323 309.205 444.083C308.605 443.83 308.085 443.463 307.645 442.983C307.205 442.503 306.858 441.923 306.605 441.243C306.365 440.55 306.245 439.757 306.245 438.863C306.245 437.677 306.445 436.677 306.845 435.863C307.245 435.037 307.818 434.41 308.565 433.983C309.311 433.543 310.198 433.323 311.225 433.323C312.198 433.323 313.051 433.543 313.785 433.983C314.531 434.41 315.111 435.037 315.525 435.863C315.951 436.677 316.165 437.677 316.165 438.863ZM308.065 438.863C308.065 439.703 308.171 440.437 308.385 441.063C308.611 441.677 308.958 442.15 309.425 442.483C309.891 442.817 310.485 442.983 311.205 442.983C311.925 442.983 312.518 442.817 312.985 442.483C313.451 442.15 313.791 441.677 314.005 441.063C314.231 440.437 314.345 439.703 314.345 438.863C314.345 438.01 314.231 437.283 314.005 436.683C313.778 436.083 313.431 435.623 312.965 435.303C312.511 434.97 311.918 434.803 311.185 434.803C310.091 434.803 309.298 435.163 308.805 435.883C308.311 436.603 308.065 437.597 308.065 438.863ZM323.254 444.443C322.307 444.443 321.461 444.25 320.714 443.863C319.981 443.477 319.401 442.877 318.974 442.063C318.561 441.25 318.354 440.21 318.354 438.943C318.354 437.623 318.574 436.55 319.014 435.723C319.454 434.897 320.047 434.29 320.794 433.903C321.554 433.517 322.414 433.323 323.374 433.323C323.921 433.323 324.447 433.383 324.954 433.503C325.461 433.61 325.874 433.743 326.194 433.903L325.654 435.363C325.334 435.243 324.961 435.13 324.534 435.023C324.107 434.917 323.707 434.863 323.334 434.863C322.614 434.863 322.021 435.017 321.554 435.323C321.087 435.63 320.741 436.083 320.514 436.683C320.287 437.283 320.174 438.03 320.174 438.923C320.174 439.777 320.287 440.503 320.514 441.103C320.741 441.703 321.081 442.157 321.534 442.463C321.987 442.77 322.554 442.923 323.234 442.923C323.821 442.923 324.334 442.863 324.774 442.743C325.227 442.623 325.641 442.477 326.014 442.303V443.863C325.654 444.05 325.254 444.19 324.814 444.283C324.387 444.39 323.867 444.443 323.254 444.443ZM335.963 435.003H332.463V444.243H330.723V435.003H327.263V433.523H335.963V435.003ZM343.015 437.923C343.948 437.923 344.722 438.037 345.335 438.263C345.948 438.49 346.408 438.83 346.715 439.283C347.035 439.723 347.195 440.283 347.195 440.963C347.195 441.63 347.042 442.21 346.735 442.703C346.442 443.197 345.982 443.577 345.355 443.843C344.728 444.11 343.922 444.243 342.935 444.243H338.075V433.523H339.835V437.923H343.015ZM345.435 441.063C345.435 440.41 345.202 439.97 344.735 439.743C344.282 439.503 343.642 439.383 342.815 439.383H339.835V442.823H342.855C343.602 442.823 344.215 442.69 344.695 442.423C345.188 442.157 345.435 441.703 345.435 441.063Z" fill="white"/>
</g>
<defs>
<clipPath id="clip0_1411_38">
<rect width="375" height="812" fill="white"/>
</clipPath>
</defs>
</svg>
