<?xml version="1.0" standalone="no"?>
<!DOCTYPE svg PUBLIC "-//W3C//DTD SVG 20010904//EN"
 "http://www.w3.org/TR/2001/REC-SVG-20010904/DTD/svg10.dtd">
<svg version="1.0" xmlns="http://www.w3.org/2000/svg"
 width="700.000000pt" height="700.000000pt" viewBox="0 0 700.000000 700.000000"
 preserveAspectRatio="xMidYMid meet">
<metadata>
Created by potrace 1.14, written by Peter Selinger 2001-2017
</metadata>
<g transform="translate(0.000000,700.000000) scale(0.100000,-0.100000)"
fill="#000000" stroke="none">
<path d="M3377 6974 c-1 -1 -47 -4 -102 -7 -136 -8 -266 -25 -405 -52 -41 -9
-86 -17 -99 -20 -132 -25 -350 -93 -526 -163 -756 -300 -1389 -870 -1769
-1593 -172 -327 -283 -657 -351 -1044 -2 -16 -8 -52 -11 -80 -3 -27 -8 -61
-10 -75 -26 -165 -25 -595 2 -809 11 -93 47 -287 70 -381 14 -58 27 -113 29
-123 10 -48 109 -325 150 -422 351 -822 1007 -1472 1839 -1825 161 -68 442
-156 591 -186 105 -21 241 -44 290 -50 33 -3 74 -8 90 -10 189 -22 526 -22
710 1 22 3 56 7 75 9 37 5 162 24 195 31 20 4 101 20 142 29 13 3 67 17 120
31 567 153 1095 459 1511 873 145 145 165 167 280 311 365 457 617 1033 703
1606 31 209 34 255 34 505 0 305 -11 434 -56 663 -47 242 -131 515 -216 707
-187 419 -411 749 -723 1061 -343 343 -694 580 -1129 758 -197 81 -505 173
-652 195 -20 3 -42 7 -50 10 -14 5 -33 8 -174 26 -141 18 -208 22 -380 24 -96
1 -176 2 -178 0z m463 -399 c62 -9 218 -33 260 -40 237 -41 658 -192 850 -305
244 -142 365 -225 513 -350 275 -230 500 -497 686 -812 143 -242 296 -635 337
-865 2 -13 6 -33 8 -45 2 -13 7 -34 10 -48 3 -14 8 -43 11 -64 3 -21 7 -48 10
-60 15 -67 28 -271 29 -426 0 -141 -10 -346 -18 -372 -3 -7 -7 -35 -10 -63 -3
-27 -8 -61 -11 -75 -2 -13 -7 -42 -11 -64 -3 -22 -7 -43 -9 -46 -2 -3 -6 -21
-9 -40 -34 -205 -166 -558 -303 -809 -42 -77 -47 -83 -59 -66 -8 10 -47 55
-88 99 -41 45 -83 90 -93 102 -10 12 -61 67 -113 124 -52 57 -103 112 -113
124 -10 12 -51 56 -90 99 -40 43 -75 88 -78 100 -3 12 1 38 8 57 48 115 112
329 129 430 4 25 8 47 9 50 2 6 13 92 21 150 18 140 10 464 -15 600 -6 30 -13
69 -16 85 -2 17 -7 39 -10 50 -102 432 -314 815 -620 1120 -109 108 -132 128
-248 217 -232 177 -532 319 -812 383 -60 14 -106 25 -125 30 -3 0 -30 5 -60 9
-30 4 -62 9 -71 11 -127 23 -473 23 -614 0 -16 -3 -45 -8 -63 -11 l-33 -5 83
-92 c45 -51 94 -104 108 -118 14 -14 43 -45 64 -70 49 -55 194 -215 221 -243
11 -12 83 -91 159 -176 77 -85 142 -157 145 -160 3 -3 29 -30 56 -60 182 -201
222 -245 237 -262 9 -10 50 -56 91 -101 112 -122 117 -128 152 -182 73 -113
106 -227 100 -355 -7 -192 -81 -322 -290 -510 -38 -35 -90 -82 -115 -104 -25
-23 -90 -82 -145 -131 -55 -50 -104 -95 -110 -101 -5 -5 -59 -55 -120 -110
-60 -54 -115 -103 -121 -109 -6 -5 -49 -44 -95 -87 -161 -146 -240 -196 -360
-227 -100 -27 -239 -23 -329 8 -154 53 -205 99 -575 510 -22 24 -49 54 -60 65
-11 12 -55 60 -98 107 -42 48 -87 97 -100 111 -12 13 -57 63 -100 110 -42 47
-87 97 -100 110 -12 14 -58 64 -102 113 -44 48 -91 100 -105 115 -14 15 -57
62 -95 105 -39 43 -93 103 -122 134 -29 31 -53 59 -53 64 0 16 -30 6 -31 -10
-1 -21 -5 -45 -24 -138 -19 -95 -28 -153 -40 -270 -5 -48 -6 -347 -1 -390 11
-98 19 -162 22 -180 42 -229 100 -408 200 -610 290 -592 744 -990 1359 -1189
105 -34 296 -79 385 -91 184 -26 470 -26 630 -1 102 16 178 31 259 52 154 41
138 45 233 -58 45 -50 90 -99 99 -109 9 -10 43 -47 75 -82 90 -96 225 -246
259 -285 17 -20 38 -43 48 -51 19 -17 22 -31 8 -31 -5 0 -38 -13 -73 -29 -116
-52 -354 -132 -437 -146 -19 -3 -37 -8 -41 -10 -14 -8 -297 -54 -385 -61 -116
-11 -445 -11 -555 -1 -299 27 -598 99 -876 212 -134 55 -328 151 -422 211 -29
19 -56 34 -61 34 -5 0 -11 3 -13 8 -1 4 -23 20 -48 36 -55 36 -191 135 -205
150 -5 6 -32 29 -60 51 -138 109 -398 391 -526 570 -321 451 -519 999 -556
1540 -11 162 -5 485 11 572 2 10 7 43 12 73 4 30 8 57 9 60 0 3 4 28 9 55 12
83 73 315 112 431 120 355 324 716 563 994 134 156 256 276 401 396 81 67 119
95 238 178 49 34 307 186 316 186 2 0 42 18 89 40 292 138 668 240 982 266 44
3 82 8 84 10 7 6 491 -4 541 -11z"/>
</g>
</svg>
